<?xml version="1.0" encoding="UTF-8"?>
<svg id="fond" xmlns="http://www.w3.org/2000/svg" viewBox="0 0 98.34 205.59">
  <defs>
    <style>
      .cls-1 {
        fill: #edf5f2;
        stroke-width: 0px;
      }
    </style>
  </defs>
  <path class="cls-1" d="M13.18.48c-5.55-2.55-6.94,5.69-6.82,9.18.02.54.4,2.86.22,3.16-.35.57-2.58,1.05-3.28,1.54C1.39,15.7.03,17.41,0,19.78c-.08,5.83,6.54,7.21,9.41,11.28,1.42,2.01,2.03,4.47,1.88,6.89-.13,2.03-1.09,3.4-1.48,5.34-.57,2.87.66,3.39,1.91,5.62,1.05,1.87.74,4.03.74,6.21,0,2,.25,4.52-.93,6.25-1.7,2.5-3.63.67-5.89,1.45-4.89,1.69-.89,8.44-.47,11.59.4,2.99-.4,3.8,2.29,5.66,3.06,2.12,1.51,2.51.23,5.59-1.69,4.07-3.65,7.66-2.94,12.41.29,1.97,1.6,3.38,2.06,5.29.6,2.44-.33,5.17,1.41,7.31,1.4,1.72,4.02,3.38,6.13,3.41s6.03,1.01,7.9,0c2.7-1.46-.13-2.72.07-4.88.16-1.79,1.18-1.58,2.25-2.58,1.53-1.43,1.32-1.84,1.77-3.78.64-2.78,2.84-4.58,3.6-7.52.79-3.05,1.17-6.06,1.16-9.18,0-2.03-.8-5.52-.02-7.36.48-1.12,2.18-1.78,2.92-2.75,1-1.32,1.47-3.07,1.82-4.66,1.42-6.41,2.97-10.16,9.11-13.05,6.24-2.94,4.18-9.67,6.34-15.19,1.5-3.84,4.62-9.88,3.32-14.1-.32-1.06-1.37-2.83-2.04-3.72-1.11-1.47-2.22-1.31-3.58-2.22-2.28-1.52-2.25-4.35-3.8-6.42-1.46-1.95-4.11-4.75-6.18-6.05-2.63-1.66-4.77.9-7.2-.7-1.03-.68-1.3-2.21-2.39-2.97s-3.31-1.3-4.61-1.34c-.83-.03-2.34.7-3.04.55-1.22-.26-1.61-1.63-2.53-2.42-1.37-1.17-4.02-2.91-5.59-3.24h-.47Z"/>
</svg>