<?xml version="1.0" encoding="UTF-8"?>
<svg id="fond" xmlns="http://www.w3.org/2000/svg" viewBox="0 0 98.34 205.59">
  <defs>
    <style>
      .cls-1 {
        fill: #edf5f2;
        stroke-width: 0px;
      }
    </style>
  </defs>
  <path class="cls-1" d="M23.47.86C13.58-3.69,11.12,10.99,11.32,17.22c.03.96.71,5.1.39,5.63-.62,1.02-4.59,1.86-5.84,2.74C2.47,27.97.06,31.01,0,35.23c-.14,10.38,11.65,12.85,16.77,20.1,2.53,3.57,3.62,7.96,3.35,12.28-.22,3.61-1.94,6.07-2.63,9.52-1.02,5.12,1.17,6.04,3.4,10.01,1.87,3.33,1.32,7.18,1.32,11.06,0,3.57.44,8.05-1.66,11.14-3.02,4.46-6.47,1.19-10.5,2.58-8.72,3.01-1.58,15.03-.83,20.65.72,5.32-.71,6.76,4.08,10.08,5.44,3.77,2.68,4.48.41,9.96-3.01,7.25-6.51,13.64-5.24,22.1.52,3.5,2.84,6.02,3.68,9.42,1.07,4.35-.58,9.22,2.51,13.02,2.49,3.07,7.16,6.01,10.91,6.07,3.63.05,10.74,1.81,14.08,0,4.81-2.6-.22-4.84.13-8.7.29-3.19,2.1-2.82,4.01-4.6,2.73-2.54,2.35-3.28,3.14-6.73,1.14-4.96,5.05-8.15,6.41-13.4,1.41-5.44,2.09-10.8,2.07-16.35-.01-3.62-1.43-9.83-.03-13.12.85-2,3.88-3.17,5.19-4.9,1.78-2.35,2.62-5.47,3.25-8.29,2.53-11.42,5.28-18.09,16.23-23.25,11.12-5.24,7.44-17.22,11.29-27.06,2.68-6.85,8.23-17.6,5.92-25.11-.58-1.88-2.44-5.05-3.63-6.62-1.98-2.63-3.96-2.34-6.39-3.96-4.06-2.71-4.01-7.76-6.77-11.44-2.6-3.47-7.31-8.45-11.01-10.78-4.69-2.96-8.5,1.6-12.83-1.25-1.84-1.21-2.31-3.94-4.25-5.28s-5.9-2.32-8.21-2.39c-1.48-.05-4.16,1.25-5.41.98-2.17-.46-2.87-2.91-4.5-4.3-2.43-2.08-7.16-5.19-9.96-5.78h-.84Z"/>
</svg>