<?xml version="1.0" encoding="UTF-8"?>
<svg id="fond" xmlns="http://www.w3.org/2000/svg" viewBox="0 0 736.8 427.68">
  <defs>
    <style>
      .cls-1 {
        fill: #ebf5f2;
        stroke-width: 0px;
      }
    </style>
  </defs>
  <path class="cls-1" d="M60.91,370.92c-13.85-8.85,5.97-36.77,18.5-37.95-1.93-5.58.16-8.3,2.5-13.42,1.55-3.39,5.76-1.04,7.33-3.49,1.29-2.02-1.06-5.59.38-7.52,2.52-3.39,10.41-8.09,11.91-11.1,2.37-4.78-1.47-10.21,1.33-15.76,3.28-6.5,7.81-4.33,12.44-7.67,6.88-4.97,4.5-1.53,8.33-9.85,6.82-14.83,8.48-15.12,22.48-23.45,10.07-6,9.87-14.77,18.44-22.67,3.7-3.41,11.1-6.9,15.27-9.85,6.15-4.34,8.04-6.83,15.55-8.12,12.86-2.21,14.79-2.75,25.12-11.32,4.68-3.88,13.34-5.5,16.89-8.57,4.27-3.68,4.56-10.43,8.47-14.6,8.06-8.57,22.1-10.34,30.8-16.03,11.37-7.44,18.79-6.23,30.55-11.05,8.17-3.35,5.51-6.2,11.58-12.16,4.95-4.86,12.65-5.02,17.96-7.51,12.84-6.01,18.62-19.87,33.57-23.49,12.79-3.1,23.63,1.09,35.72,1.24,7.6.09,10.62-3.26,17.31-4.97,5.21-1.34,11.31.14,15.73-1.03,11.62-3.09,19.13-11.81,32.08-13.64,11.03-1.55,19.18-1.5,29.69-4.69,8.77-2.66,15.47-2.75,23.45-7.12,9.4-5.15,13.17-9.18,25.55-9.29,9.06-.08,7.89,2.68,17.96-.84,6.57-2.3,11.95-5.93,17.9-8.66,6.52-2.99,11.09-2.78,18.55-4.25,7.27-1.43,9.3-3.92,15.54-7.16,7.8-4.06,30.71-15.4,36.63-6.45,12.76-14.57,46.2-6.04,57.07,9.53,17.77,25.47-6.81,36.96-19.2,55.22-6.49,9.56-.75,16.51.11,26.2.59,6.65-2.6,10.78-4.32,16.07-2.18,6.71-2.11,9.58-3.1,16.53-3.71,26.09-28.04,38.9-52.96,40.7-17.01,1.23-20.63-.82-33.56,11.97-10,9.89-18.95,20.76-29.6,29.88-19.52,16.71-36.26,47.12-46.61,70.91-9.03,20.78-8.04,42.8-13.42,63.96-6.41,25.21-31.1,37.52-53.34,42.89-13.18,3.19-26.11,6.15-39.63,3.39l-14.33-11.12c-3.5-2.72-7.38-17.19-11.02-25.83-1.16-2.75,5.31-15.41,5.68-17.22,2.38-11.28-9.09-20.56-14.26-28.63-18.41,14.33-40.71,8.25-54.3-10.01-6.99-9.39-6.63-13.18-18.15-11.64-10.53,1.41-17.24,11.26-27.53,1.29-5.83,8.78-6.26,15.6-18.06,15.92-6.41.17-19.31-9.38-22.44-5.91-6.44,7.13,24.45,48.43-8.51,39.07.02,10.61-14.78,13.35-23.31,11.88-10.58-1.82-12.75-11.25-21.41-14.53-8.42-3.19-13.97,3.29-23.47,1.55-9.7-1.78-11.95-13.46-20.49-12.43-4.62,16.34-13.74,2.29-19.18,2.03-9.39-.45-15.67,13.55-21.05,20.06-14.42,17.47-36.49,28.57-44.96,1.22l-.16-.52Z"/>
</svg>