<?xml version="1.0" encoding="UTF-8"?>
<svg id="fond" xmlns="http://www.w3.org/2000/svg" viewBox="0 0 236.33 512.83">
  <defs>
    <style>
      .cls-1 {
        fill: #edf5f2;
        stroke-width: 0px;
      }
    </style>
  </defs>
  <path class="cls-1" d="M97.48,7.4C82.99-3.23,46.05,1.59,29.31,3.94c-13.07,1.83-20.83,6.23-25.95,18.01-3.65,8.4-7.28,21.64,6.23,22.95-10.13,14.21-4.1,41.86,9.3,52.8,15.36,12.53,42.8,8.84,60.44,6.11,6.03-.93,24.67-7.96,29.97-4.59,10.24,6.51-4.79,12.83-9.69,16.63-10.7,8.31-13.16,19.12-21.4,28.4-6.5,7.33-17.69,5.37-24.39,12.9-10.1,11.36-12.17,47.63-5,60.22,6.7,11.76,15.69,3.28,20.38,11.65,3.19,5.7-.27,17.61-1.68,23.31-3.93,15.85-13.43,28.34-23.66,40.47-18.4,21.82,4.31,33.14,3.15,56.35-1,19.93-5.99,39.73-6.17,59.75-.1,10.49,4.61,17.76,6.46,27.6,1.84,9.75-1.09,20.65-1.16,30.31-.13,18.93,11.19,36.66,28.92,43.65,8.05,3.18,18.66,2.97,26.71.47,10.87-3.37,11.06-8.57,12.66-19.45,3.01-20.47,10.99-35.01,23.61-51.52,13.06-17.08,21.66-33.59,23.59-55.68,1.71-19.51,2.08-38.95,2.08-58.74,0-18.24,4.13-48.37-6.39-64.22-5.42-8.16-15.55-9.84-20.32-18.91-5.51-10.47-5.97-23.95-5.43-35.18,1.14-24,8.22-54.69,26.86-71.7,9.07-8.27,15.37-4,26.65-4.15,10.46-.14,18.29-7.65,25.15-15.01,9.43-10.1,25.65-31.73,17.48-47.28-4.56-8.67-15.62-5.43-23.32-6.54,4.05-11.33,24.35-15.52,10.62-29.5-8.92-9.08-28.63-9.82-40.98-12.02-28.14-5.01-46.94-4.88-74.15-12.53l-2.43-1.12Z"/>
</svg>