<?xml version="1.0" encoding="UTF-8"?>
<svg id="Calque_1" data-name="Calque 1" xmlns="http://www.w3.org/2000/svg" viewBox="0 0 102.3 88.7">
  <defs>
    <style>
      .cls-1 {
        stroke: #288e4d;
        stroke-miterlimit: 10;
        stroke-width: 2.5px;
      }

      .cls-1, .cls-2 {
        fill: #288e4d;
      }

      .cls-2 {
        stroke-width: 0px;
      }
    </style>
  </defs>
  <g>
    <path class="cls-2" d="M27.18,51.78c5.09-.37,9.83-2.66,13.62-6.07,3.79-3.42,6.48-8.24,7.37-13.27l4.93-.65c-.44,6.46-3.26,12.72-7.79,17.34s-10.75,7.55-17.19,8.11c-.32-1.82-.63-3.64-.95-5.46"/>
    <path class="cls-2" d="M27.18,51.91c5.26-.43,10.17-2.79,14.01-6.38,1.89-1.77,3.47-3.86,4.69-6.14.58-1.09,1.08-2.22,1.49-3.39.22-.64.42-1.29.59-1.94.09-.35.18-1.39.36-1.51.33-.21,1.22-.16,1.6-.21l2.52-.33c.06,0,.55-.13.62-.08.01,0-.26,1.74-.27,1.84-.19,1.33-.49,2.65-.88,3.94-1.7,5.66-5.22,10.73-10.01,14.21-2.61,1.9-5.54,3.34-8.64,4.23-.71.21-1.43.38-2.16.53-.56.11-2.03.62-2.56.39-.64-.27-.66-2.02-.76-2.6-.16-.91-.32-1.82-.47-2.73-.03-.16-.27-.09-.24.07.32,1.82.63,3.64.95,5.46,0,.05.07.1.12.09,13.42-1.27,24.08-12.13,25.11-25.57,0-.06-.06-.13-.13-.13l-4.93.65c-.05,0-.11.03-.12.09-1.89,10.11-10.52,18.4-20.88,19.25-.16.01-.16.26,0,.25h0Z"/>
  </g>
  <g>
    <path class="cls-2" d="M75.12,51.62c-5.09-.37-9.83-2.66-13.62-6.07-3.79-3.42-6.4-8.12-7.3-13.15-1.67-.26-3.34-.51-5.01-.77.44,6.46,3.26,12.72,7.79,17.34s10.75,7.55,17.19,8.11c.32-1.82.63-3.64.95-5.46"/>
    <path class="cls-2" d="M75.12,51.49c-10.32-.85-18.92-9.05-20.8-19.13,0-.04-.05-.08-.09-.09-1.67-.26-3.34-.51-5.01-.77-.07-.01-.17.03-.16.12,1.02,13.44,11.69,24.3,25.11,25.57.05,0,.11-.04.12-.09.32-1.82.63-3.64.95-5.46.03-.16-.21-.22-.24-.07-.24,1.36-.47,2.73-.71,4.09-.01.08-.07.8-.16.91-.37.46-.64.3-1.15.23-.8-.11-1.59-.25-2.37-.42-2.49-.56-4.89-1.47-7.13-2.69-4.62-2.52-8.43-6.34-10.93-10.97-1.27-2.36-2.21-4.91-2.75-7.54-.11-.53-.2-1.06-.28-1.59-.09-.63-.47-1.66.31-1.75.6-.07,1.44.22,2.05.31.66.1,1.89.03,2.26.66.26.43.29,1.28.42,1.76.16.58.35,1.16.56,1.72.4,1.08.87,2.13,1.42,3.15,1.13,2.07,2.57,3.98,4.26,5.62,3.87,3.75,8.91,6.22,14.3,6.66.16.01.16-.24,0-.25h0Z"/>
  </g>
  <path class="cls-1" d="M47.95,32.7h5.14c.74,0,1.35.6,1.35,1.35v1.14c0,.74-.6,1.35-1.35,1.35h-5.14v-3.83h0Z" transform="translate(16.57 85.81) rotate(-90)"/>
</svg>